<svg width="274" height="106" viewBox="0 0 274 106" fill="none" xmlns="http://www.w3.org/2000/svg">
<path d="M81.9682 27.0376C82.0303 36.3636 76.4503 44.9993 65.6627 44.9993C62.6077 44.9993 59.4442 44.1762 57.1497 41.707C56.9878 41.5322 56.6952 41.6428 56.6952 41.8818V44.3023C56.6952 44.4462 56.5777 44.5634 56.4336 44.5634H47.1735C47.0294 44.5634 46.9119 44.4462 46.9119 44.3023V0.261082C46.9119 0.117265 47.0294 0 47.1735 0H56.4336C56.5777 0 56.6952 0.117265 56.6952 0.261082V13.1117C56.6952 13.3462 56.9767 13.4591 57.143 13.2931C59.3732 11.0717 62.4282 10.1402 65.5385 10.1402C76.5124 10.138 81.8419 17.7736 81.9682 27.0376ZM72.0585 27.2877C71.9965 23.1568 69.4869 19.214 64.47 19.214C60.2046 19.214 56.693 22.9068 56.693 27.4138C56.693 31.9208 60.2046 35.5494 64.47 35.5494C69.5512 35.5494 72.1228 31.3566 72.0585 27.2877Z" fill="#FE3D01"/>
<path d="M95.9856 11.5471V13.4543C95.9856 13.8194 96.4268 13.9964 96.6861 13.7376C99.107 11.348 102.718 10.5802 106.019 10.6377C109.666 10.8147 112.098 12.3658 113.679 14.6735C113.832 14.8969 114.153 14.9102 114.328 14.7044C116.767 11.8193 121.445 10.5205 125.209 10.6997C131.605 10.9497 136.748 15.2067 136.622 25.9089V44.5897C136.622 44.8154 136.44 44.9968 136.214 44.9968H127.06C126.834 44.9968 126.652 44.8154 126.652 44.5897V25.9709C126.652 21.9019 124.708 20.3996 122.451 20.3377C120.006 20.2757 116.368 21.9639 116.306 25.7208V44.5897C116.306 44.8154 116.124 44.9968 115.898 44.9968H115.867H106.744C106.518 44.9968 106.336 44.8154 106.336 44.5897V25.9709C106.336 21.9019 104.392 20.3996 102.135 20.3377C99.6901 20.2757 96.491 22.0281 96.491 25.8447V44.5897C96.491 44.8154 96.3093 44.9968 96.0831 44.9968H86.424C86.1978 44.9968 86.016 44.8154 86.016 44.5897V11.5471C86.016 11.3214 86.1978 11.14 86.424 11.14H95.5777C95.8016 11.14 95.9856 11.3214 95.9856 11.5471Z" fill="#FE3D01"/>
<path d="M176.21 31.4781H152.837C152.533 31.4781 152.34 31.7967 152.473 32.0711C153.808 34.8058 156.677 36.1776 159.49 36.2352C161.625 36.2352 163.642 35.5249 165.077 34.0447C165.154 33.9651 165.258 33.9186 165.369 33.9186H175.332C175.62 33.9186 175.818 34.2084 175.711 34.4784C172.925 41.6139 165.957 45.1186 158.987 44.9969C150.396 44.8089 141.868 39.0518 141.868 27.5973C141.868 15.9569 150.709 10.1976 159.552 10.2618C168.269 10.3237 176.922 16.083 176.922 27.5973C176.922 28.8518 176.817 30.0046 176.609 31.1462C176.576 31.3387 176.405 31.4781 176.21 31.4781ZM165.58 23.7784C165.859 23.7784 166.061 23.5018 165.966 23.2385C164.893 20.2316 162.261 18.8355 159.239 18.8355C156.459 18.8355 153.901 20.2825 152.779 23.2319C152.68 23.4974 152.879 23.7806 153.163 23.7806H165.58V23.7784Z" fill="#FE3D01"/>
<path d="M43.1249 44.5567L25.1411 0.887118C25.0923 0.76764 24.9748 0.687988 24.844 0.687988H17.6279C17.4971 0.687988 17.3774 0.767637 17.3286 0.891541L0.0232309 44.5611C-0.0610126 44.7713 0.0941742 44.9992 0.322518 44.9992H10.179C10.9372 44.9992 11.6865 44.8509 12.3849 44.5611L28.2448 37.9942C28.4133 37.9256 28.6062 38.0074 28.6682 38.1778L30.832 44.0035C31.0537 44.6031 31.6278 44.9992 32.2663 44.9992H42.8256C43.0561 44.9992 43.2113 44.7669 43.1249 44.5567ZM15.462 33.9385L20.9954 19.1453C21.0996 18.8665 21.4942 18.8665 21.5962 19.1453L25.5246 29.7192C25.5845 29.8785 25.5091 30.0533 25.3539 30.1241L15.892 34.3434C15.6327 34.4585 15.3622 34.204 15.462 33.9385Z" fill="#FE3D01"/>
<path d="M229.937 11.446C230.103 11.1937 229.921 10.8574 229.62 10.8574H229.323H219.856C219.73 10.8574 219.613 10.9194 219.542 11.0256L208.572 27.2482C208.49 27.3699 208.486 27.5314 208.563 27.6575L218.85 44.5969C218.919 44.7098 219.043 44.7806 219.176 44.7806H229.449C229.751 44.785 229.937 44.4531 229.777 44.1987L219.422 27.7748C219.342 27.6486 219.344 27.4893 219.426 27.3632L229.937 11.446Z" fill="#FE3D01"/>
<path d="M213.041 11.446C213.208 11.1937 213.026 10.8574 212.724 10.8574H212.427H202.961C202.835 10.8574 202.717 10.9194 202.646 11.0256L195.016 22.3097L187.385 11.0256C187.314 10.9216 187.196 10.8574 187.07 10.8574H177.604H177.307C177.003 10.8574 176.821 11.1937 176.99 11.446L187.505 27.3654C187.587 27.4893 187.589 27.6508 187.509 27.777L177.154 44.2009C176.994 44.4553 177.18 44.7872 177.482 44.7828H187.755C187.888 44.7828 188.01 44.7142 188.081 44.5992L195.02 33.1734L201.959 44.5992C202.028 44.712 202.152 44.7828 202.285 44.7828H212.558C212.86 44.7872 213.046 44.4553 212.886 44.2009L202.531 27.777C202.451 27.6508 202.453 27.4915 202.535 27.3654L213.041 11.446Z" fill="#FE3D01"/>
<path d="M0 104.917V61H7.75205L20.6324 90.2981H21.5865L34.4072 61H42.2188V104.917H36.375V67.4372L36.7924 67.5575L24.4488 95.8329H17.293L4.88975 67.5575L5.3668 67.4372V104.917H0Z" fill="white"/>
<path d="M67.5574 106C64.7746 106 62.3695 105.519 60.3421 104.556C58.3146 103.594 56.6648 102.33 55.3927 100.766C54.1205 99.1618 53.1664 97.377 52.5304 95.4118C51.9341 93.4465 51.6359 91.4412 51.6359 89.3957V88.3128C51.6359 86.2273 51.9341 84.2019 52.5304 82.2366C53.1664 80.2714 54.1205 78.5067 55.3927 76.9425C56.6648 75.3382 58.2748 74.0749 60.2228 73.1524C62.2105 72.1898 64.5361 71.7086 67.1996 71.7086C70.6582 71.7086 73.5007 72.4706 75.7269 73.9947C77.9929 75.4786 79.6625 77.4037 80.7359 79.7701C81.849 82.1364 82.4056 84.6631 82.4056 87.3503V89.9372H54.1404V85.6056H78.2314L76.9195 87.9519C76.9195 85.6658 76.5617 83.7005 75.8462 82.0561C75.1306 80.3717 74.0572 79.0682 72.6261 78.1457C71.1949 77.2233 69.3861 76.762 67.1996 76.762C64.9337 76.762 63.0453 77.2834 61.5347 78.3262C60.0638 79.369 58.9507 80.7928 58.1953 82.5976C57.4798 84.4024 57.122 86.488 57.122 88.8543C57.122 91.1404 57.4798 93.2059 58.1953 95.0508C58.9507 96.8556 60.1035 98.2995 61.6539 99.3824C63.2043 100.425 65.1722 100.947 67.5574 100.947C70.0619 100.947 72.0894 100.385 73.6398 99.262C75.23 98.139 76.1841 96.8356 76.5021 95.3516H81.8689C81.4316 97.5575 80.557 99.4626 79.2451 101.067C77.9332 102.671 76.2834 103.894 74.2957 104.737C72.308 105.579 70.0619 106 67.5574 106Z" fill="white"/>
<path d="M90.5336 104.917V72.7914H95.0656V86.5682H94.35C94.35 83.4398 94.7475 80.7928 95.5426 78.627C96.3774 76.4211 97.6098 74.7366 99.2397 73.5735C100.87 72.4104 102.937 71.8289 105.441 71.8289H105.68C108.184 71.8289 110.252 72.4104 111.882 73.5735C113.551 74.7366 114.784 76.4211 115.579 78.627C116.374 80.7928 116.771 83.4398 116.771 86.5682H115.102C115.102 83.4398 115.519 80.7928 116.354 78.627C117.189 76.4211 118.421 74.7366 120.051 73.5735C121.721 72.4104 123.808 71.8289 126.312 71.8289H126.551C129.055 71.8289 131.142 72.4104 132.812 73.5735C134.482 74.7366 135.714 76.4211 136.509 78.627C137.344 80.7928 137.761 83.4398 137.761 86.5682V104.917H132.037V85.3048C132.037 82.6979 131.401 80.6925 130.129 79.2888C128.857 77.8449 127.087 77.123 124.821 77.123C122.476 77.123 120.588 77.885 119.157 79.4091C117.725 80.893 117.01 82.9786 117.01 85.6658V104.917H111.285V85.3048C111.285 82.6979 110.649 80.6925 109.377 79.2888C108.105 77.8449 106.336 77.123 104.07 77.123C101.724 77.123 99.836 77.885 98.4049 79.4091C96.9737 80.893 96.2582 82.9786 96.2582 85.6658V104.917H90.5336Z" fill="white"/>
<path d="M165.059 106C162.435 106 160.09 105.418 158.023 104.255C155.995 103.092 154.385 101.408 153.192 99.2019C152 96.9559 151.344 94.2687 151.225 91.1404H152.775V104.917H148.243V61H153.968V82.357L151.94 86.7487C152.099 83.2594 152.795 80.4118 154.027 78.2059C155.26 76 156.87 74.3757 158.857 73.3329C160.885 72.25 163.111 71.7086 165.536 71.7086C167.802 71.7086 169.869 72.1497 171.738 73.0321C173.606 73.8743 175.216 75.0575 176.568 76.5816C177.919 78.0655 178.953 79.8102 179.669 81.8155C180.384 83.7807 180.742 85.9064 180.742 88.1925V89.2754C180.742 91.5615 180.364 93.7072 179.609 95.7126C178.893 97.7179 177.84 99.5027 176.449 101.067C175.057 102.591 173.387 103.794 171.44 104.676C169.531 105.559 167.404 106 165.059 106ZM164.403 100.947C166.55 100.947 168.418 100.425 170.008 99.3824C171.599 98.3396 172.831 96.9158 173.706 95.111C174.58 93.266 175.017 91.1404 175.017 88.734C175.017 86.3275 174.56 84.2219 173.646 82.4171C172.771 80.6123 171.539 79.2286 169.949 78.266C168.359 77.2634 166.51 76.762 164.403 76.762C162.495 76.762 160.726 77.2032 159.096 78.0856C157.466 78.9278 156.154 80.1711 155.16 81.8155C154.206 83.4198 153.729 85.365 153.729 87.6511V90.4184C153.729 92.6243 154.226 94.5094 155.22 96.0735C156.214 97.6377 157.526 98.8409 159.156 99.6832C160.785 100.525 162.535 100.947 164.403 100.947Z" fill="white"/>
<path d="M202.892 106C200.109 106 197.704 105.519 195.677 104.556C193.649 103.594 192 102.33 190.727 100.766C189.455 99.1618 188.501 97.377 187.865 95.4118C187.269 93.4465 186.971 91.4412 186.971 89.3957V88.3128C186.971 86.2273 187.269 84.2019 187.865 82.2366C188.501 80.2714 189.455 78.5067 190.727 76.9425C192 75.3382 193.61 74.0749 195.558 73.1524C197.545 72.1898 199.871 71.7086 202.534 71.7086C205.993 71.7086 208.835 72.4706 211.062 73.9947C213.328 75.4786 214.997 77.4037 216.071 79.7701C217.184 82.1364 217.74 84.6631 217.74 87.3503V89.9372H189.475V85.6056H213.566L212.254 87.9519C212.254 85.6658 211.896 83.7005 211.181 82.0561C210.465 80.3717 209.392 79.0682 207.961 78.1457C206.53 77.2233 204.721 76.762 202.534 76.762C200.268 76.762 198.38 77.2834 196.869 78.3262C195.398 79.369 194.285 80.7928 193.53 82.5976C192.814 84.4024 192.457 86.488 192.457 88.8543C192.457 91.1404 192.814 93.2059 193.53 95.0508C194.285 96.8556 195.438 98.2995 196.989 99.3824C198.539 100.425 200.507 100.947 202.892 100.947C205.397 100.947 207.424 100.385 208.975 99.262C210.565 98.139 211.519 96.8356 211.837 95.3516H217.204C216.766 97.5575 215.892 99.4626 214.58 101.067C213.268 102.671 211.618 103.894 209.63 104.737C207.643 105.579 205.397 106 202.892 106Z" fill="white"/>
<path d="M225.868 104.917V72.7914H230.4V86.0267H230.162C230.162 81.3342 231.175 77.9051 233.203 75.7393C235.27 73.5334 238.351 72.4305 242.446 72.4305H243.519V77.6043H241.492C238.311 77.6043 235.866 78.4666 234.157 80.1912C232.448 81.8757 231.593 84.3222 231.593 87.5307V104.917H225.868Z" fill="white"/>
<path d="M260.762 105.88C256.588 105.88 253.348 104.977 251.042 103.172C248.776 101.368 247.603 98.9011 247.524 95.7727H252.891C252.97 97.016 253.586 98.1992 254.739 99.3222C255.932 100.405 257.939 100.947 260.762 100.947C263.306 100.947 265.254 100.445 266.606 99.4425C267.957 98.3997 268.633 97.1364 268.633 95.6524C268.633 94.3289 268.136 93.3061 267.142 92.5842C266.149 91.8222 264.538 91.3209 262.312 91.0802L258.854 90.7193C255.832 90.3984 253.368 89.496 251.459 88.012C249.551 86.488 248.597 84.3623 248.597 81.635C248.597 79.5896 249.114 77.8449 250.147 76.4011C251.181 74.9171 252.612 73.7941 254.441 73.0321C256.27 72.2299 258.377 71.8289 260.762 71.8289C264.34 71.8289 267.242 72.631 269.468 74.2353C271.694 75.8396 272.847 78.2259 272.927 81.3944H267.56C267.52 80.111 266.924 79.0281 265.771 78.1457C264.658 77.2233 262.988 76.762 260.762 76.762C258.536 76.762 256.846 77.2233 255.693 78.1457C254.54 79.0682 253.964 80.2313 253.964 81.635C253.964 82.8382 254.361 83.8008 255.157 84.5227C255.991 85.2446 257.343 85.7059 259.211 85.9064L262.67 86.2674C266.089 86.6283 268.832 87.5909 270.899 89.1551C272.966 90.6791 274 92.8449 274 95.6524C274 97.6578 273.424 99.4425 272.271 101.007C271.158 102.531 269.607 103.734 267.619 104.616C265.632 105.459 263.346 105.88 260.762 105.88Z" fill="white"/>
</svg>
